<?xml version="1.0" encoding="utf-8"?>
<!-- Generator: Adobe Illustrator 21.1.0, SVG Export Plug-In . SVG Version: 6.00 Build 0)  -->
<svg version="1.1" id="Layer_1" xmlns="http://www.w3.org/2000/svg" xmlns:xlink="http://www.w3.org/1999/xlink" x="0px" y="0px"
	 viewBox="0 0 90 90" style="enable-background:new 0 0 90 90;" xml:space="preserve">
<style type="text/css">
	.st0{clip-path:url(#SVGID_2_);fill:#3C4656;}
	.st1{clip-path:url(#SVGID_4_);fill:#3C4656;}
	.st2{clip-path:url(#SVGID_6_);fill:#3C4656;}
</style>
<g id="Layer_5">
	<g>
		<g>
			<g>
				<defs>
					<path id="SVGID_1_" d="M36.5,31.1h18.9c3.1,0,5.7,2.6,5.7,5.7v13.5c0,3.1-2.5,5.7-5.7,5.7h-4.8l-9,4.2
						c-0.2,0.1-0.3,0.1-0.5,0.1s-0.4-0.1-0.6-0.2c-0.3-0.2-0.5-0.6-0.5-0.9V56h-3.4c-3.1,0-5.7-2.6-5.7-5.7V36.8
						C30.8,33.6,33.3,31.1,36.5,31.1L36.5,31.1L36.5,31.1z M33,50.2c0,1.9,1.5,3.4,3.4,3.4H41c0.6,0,1.1,0.5,1.1,1.1v2.6l7.7-3.6
						c0.1-0.1,0.3-0.1,0.5-0.1h5.1c1.9,0,3.4-1.5,3.4-3.4V36.8c0-1.9-1.5-3.4-3.4-3.4H36.5c-1.9,0-3.4,1.5-3.4,3.4L33,50.2L33,50.2
						L33,50.2z"/>
				</defs>
				<clipPath id="SVGID_2_">
					<use xlink:href="#SVGID_1_"  style="overflow:visible;"/>
				</clipPath>
				<rect x="23.1" y="23.4" class="st0" width="45.5" height="44.4"/>
			</g>
		</g>
		<g>
			<g>
				<defs>
					<path id="SVGID_3_" d="M45.9,36c-2.7,0-4.9,2.2-4.9,4.9c0,0.6,0.5,1.1,1.1,1.1s1.1-0.5,1.1-1.1c0-1.5,1.2-2.6,2.6-2.6
						s2.6,1.2,2.6,2.6c0,0.9-0.5,1.7-1.2,2.2c-1.7,1-2.7,2.8-2.7,4.8c0,0.6,0.5,1.1,1.1,1.1l0,0c0.6,0,1.1-0.5,1.1-1.2
						c0-1.1,0.6-2.2,1.6-2.7l0,0c1.4-0.9,2.3-2.5,2.3-4.2C50.8,38.2,48.6,36,45.9,36L45.9,36L45.9,36z"/>
				</defs>
				<clipPath id="SVGID_4_">
					<use xlink:href="#SVGID_3_"  style="overflow:visible;"/>
				</clipPath>
				<rect x="33.4" y="28.3" class="st1" width="25" height="28.2"/>
			</g>
		</g>
		<g>
			<g>
				<defs>
					<path id="SVGID_5_" d="M45.8,50.1c-0.3,0-0.6,0.1-0.8,0.3s-0.3,0.5-0.3,0.8s0.1,0.6,0.3,0.8s0.5,0.3,0.8,0.3s0.6-0.1,0.8-0.3
						s0.3-0.5,0.3-0.8s-0.1-0.6-0.3-0.8C46.3,50.2,46,50.1,45.8,50.1L45.8,50.1L45.8,50.1z"/>
				</defs>
				<clipPath id="SVGID_6_">
					<use xlink:href="#SVGID_5_"  style="overflow:visible;"/>
				</clipPath>
				<rect x="37" y="42.4" class="st2" width="17.5" height="17.5"/>
			</g>
		</g>
	</g>
</g>
</svg>
